<?xml version="1.0" encoding="UTF-8" standalone="no"?>
<!-- Created with Inkscape (http://www.inkscape.org/) -->
<svg xmlns:dc="http://purl.org/dc/elements/1.1/" xmlns:cc="http://creativecommons.org/ns#" xmlns:rdf="http://www.w3.org/1999/02/22-rdf-syntax-ns#" xmlns:svg="http://www.w3.org/2000/svg" xmlns="http://www.w3.org/2000/svg" xmlns:sodipodi="http://sodipodi.sourceforge.net/DTD/sodipodi-0.dtd" xmlns:inkscape="http://www.inkscape.org/namespaces/inkscape" width="385.01001" height="302.70001" id="svg2" version="1.1" inkscape:version="0.47 r22583" sodipodi:docname="letter_C.svg">
  <title id="title4335">C Is For Car</title>
  <defs id="defs4"/>
  <sodipodi:namedview id="base" pagecolor="#ffffff" bordercolor="#666666" borderopacity="1.0" inkscape:pageopacity="0.0" inkscape:pageshadow="2" inkscape:zoom="0.98994949" inkscape:cx="265.76222" inkscape:cy="190.80089" inkscape:document-units="px" inkscape:current-layer="layer1" showgrid="false" inkscape:window-width="1280" inkscape:window-height="753" inkscape:window-x="-4" inkscape:window-y="-4" inkscape:window-maximized="1" showborder="true"/>
  <metadata id="metadata7">
    <rdf:RDF>
      <cc:Work rdf:about="">
        <dc:format>image/svg+xml</dc:format>
        <dc:type rdf:resource="http://purl.org/dc/dcmitype/StillImage"/>
        <dc:title>C Is For Car</dc:title>
        <cc:license rdf:resource="http://creativecommons.org/licenses/publicdomain/"/>
        <dc:creator>
          <cc:Agent>
            <dc:title>mazeo</dc:title>
          </cc:Agent>
        </dc:creator>
        <dc:publisher>
          <cc:Agent>
            <dc:title>openclipart.org</dc:title>
          </cc:Agent>
        </dc:publisher>
        <dc:language>en</dc:language>
        <dc:date>2010-09-18</dc:date>
        <dc:contributor>
          <cc:Agent>
            <dc:title>mazeo, koconmus</dc:title>
          </cc:Agent>
        </dc:contributor>
        <dc:subject>
          <rdf:Bag>
            <rdf:li>remix</rdf:li>
            <rdf:li>car</rdf:li>
            <rdf:li>auto</rdf:li>
            <rdf:li>automobile</rdf:li>
            <rdf:li>letter C</rdf:li>
            <rdf:li>alphabet</rdf:li>
            <rdf:li>coloring book</rdf:li>
            <rdf:li>colouring book</rdf:li>
          </rdf:Bag>
        </dc:subject>
        <dc:description>Outlines of an uppercase and lowercase letter c, with a car for coloring. Typeface is Let's Trace (public domain).</dc:description>
      </cc:Work>
      <cc:License rdf:about="http://creativecommons.org/licenses/publicdomain/">
        <cc:permits rdf:resource="http://creativecommons.org/ns#Reproduction"/>
        <cc:permits rdf:resource="http://creativecommons.org/ns#Distribution"/>
        <cc:permits rdf:resource="http://creativecommons.org/ns#DerivativeWorks"/>
      </cc:License>
    </rdf:RDF>
  </metadata>
  <g inkscape:label="Layer 1" inkscape:groupmode="layer" id="layer1" transform="translate(861.66429,-692.25997)">
    <g id="g4585" transform="translate(1,-1)">
      <g transform="translate(0.46946761,0)" id="text2816-1" style="font-size:200.61012268px;font-style:normal;font-variant:normal;font-weight:normal;font-stretch:normal;text-align:start;line-height:125%;writing-mode:lr-tb;text-anchor:start;color:#000000;fill:none;stroke:#000000;stroke-width:2.43614554;stroke-linecap:butt;stroke-linejoin:miter;stroke-miterlimit:4;stroke-opacity:1;stroke-dashoffset:0;marker:none;visibility:visible;display:inline;overflow:visible;enable-background:accumulate;font-family:LetsTrace;-inkscape-font-specification:LetsTrace">
        <path id="path2832" style="marker:none" d="m -691.77362,901.05888 c 11.23201,9e-5 21.2621,3.81214 30.0903,11.43615 1.20393,0.93472 2.80793,2.53872 4.812,4.812 0.53457,0.53474 0.8019,1.27143 0.802,2.21009 -1e-4,0.53474 -0.0654,0.93472 -0.19591,1.19993 -0.40416,1.2041 -1.34186,1.93977 -2.81312,2.20703 -1.47144,0.26741 -2.6071,-0.13359 -3.40697,-1.20299 -1.33879,-1.46924 -2.7428,-2.87325 -4.21203,-4.21203 -7.62417,-6.42 -16.45228,-9.63004 -26.48436,-9.63012 -12.03616,8e-5 -22.13359,4.48148 -30.29232,13.44421 -6.68539,7.48947 -10.02807,16.1829 -10.02806,26.08029 -1e-5,12.16676 4.61403,22.1295 13.84215,29.88827 7.62406,6.42008 16.45013,9.63012 26.47823,9.63011 12.30543,10e-6 22.40286,-4.48139 30.29233,-13.4442 0.80395,-0.79994 1.74064,-1.19992 2.81006,-1.19994 1.06924,2e-5 1.87124,0.26735 2.406,0.802 0.93863,0.66937 1.408,1.53871 1.40809,2.60803 -9e-5,0.79997 -0.33477,1.53463 -1.00403,2.20396 -9.22818,10.56682 -21.19899,15.85021 -35.91245,15.85021 -12.17084,0 -22.66826,-3.81204 -31.49226,-11.43615 -10.83619,-9.22807 -16.25428,-20.86216 -16.25427,-34.90229 -1e-5,-11.37079 3.94673,-21.53556 11.84021,-30.49435 9.35868,-10.56672 21.7968,-15.85012 37.31441,-15.85021 z"/>
        <path id="path2834" style="marker:none" d="m -618.58961,946.60144 c 6.42004,5e-5 11.76874,2.13871 16.04611,6.416 l 0.802,0.802 c 0.93869,0.93877 1.20602,2.07544 0.802,3.41003 -0.53471,1.47343 -1.33671,2.27543 -2.406,2.406 -1.33874,0.40409 -2.47542,0.0715 -3.41002,-0.99791 l -0.59997,-0.60609 c -2.94275,-2.94267 -6.42012,-4.41402 -10.43212,-4.41406 -4.28144,4e-5 -8.02614,1.73872 -11.23412,5.21606 -2.67743,3.3468 -4.01613,7.15884 -4.01612,11.43615 -10e-6,4.81609 1.60602,8.82813 4.81812,12.03611 2.94269,2.94272 6.42005,4.41407 10.43212,4.41406 4.41198,10e-6 8.15669,-1.73867 11.23412,-5.21606 0.79991,-1.06932 1.93659,-1.46929 3.41003,-1.19993 1.33866,0.2653 2.208,1.0673 2.60802,2.40599 -4e-5,0.1347 0.0336,0.30204 0.10102,0.50202 0.0673,0.2 0.10097,0.36734 0.10102,0.50202 -5e-5,0.93465 -0.33473,1.73665 -1.00403,2.40599 -4.41615,5.08138 -9.89953,7.62206 -16.45018,7.62206 -5.88544,0 -10.9015,-2.07336 -15.04821,-6.22009 -4.6814,-4.68138 -7.0221,-10.4321 -7.02209,-17.25217 -1e-5,-6.42005 1.94071,-11.76875 5.82215,-16.04612 4.412,-5.08133 9.56071,-7.62201 15.44615,-7.62206 z"/>
      </g>
      <path id="path4583" d="m -709.08375,873.15659 c -6.475,-1.0244 -12.42273,-4.0942 -17.06985,-8.8102 -4.20492,-4.2673 -9.84802,-15.6745 -10.88743,-22.0084 l -0.69743,-4.25 -5.1621,0.06 c -11.2289,0.1297 -14.19267,1.1853 -19.8848,7.0823 -19.26724,19.961 -55.5734,15.856 -66.95477,-7.5703 l -2.04358,-4.2063 -11.60906,-1.5947 c -9.73927,-1.3379 -11.90384,-1.9588 -13.43927,-3.855 -2.38664,-2.9473 -1.87908,-7.1311 1.01938,-8.4027 1.80872,-0.7936 2.25,-1.794 2.25,-5.1008 0,-2.2625 -0.49402,-5.53082 -1.09783,-7.2629 -0.79976,-2.2942 -0.79606,-4.01486 0.0136,-6.33755 1.01415,-2.9092 0.853,-3.45636 -1.84084,-6.25 -6.93425,-7.19114 -6.89752,-18.90591 0.0836,-26.66355 4.51802,-5.02058 16.88544,-9.39861 29.54944,-10.46043 5.51223,-0.46217 8.81603,-1.30616 11.292,-2.88463 11.45075,-7.30003 31.52355,-12.09801 66.97181,-16.0082 6.8595,-0.75664 12.60428,-1.77313 12.76619,-2.25885 1.52067,-4.56203 10.72958,-17.7035 17.18371,-24.52185 7.56096,-7.98764 8.39549,-8.56571 15.28791,-10.58983 17.30596,-5.08232 46.8301,-7.65282 78.79038,-6.85984 44.03968,1.09269 74.15345,7.44921 83.2721,17.57737 6.44616,7.1598 17.11755,23.59275 20.44615,31.48517 4.14695,9.83279 4.63548,10.44652 10.28175,12.91672 13.76471,6.02195 26.93745,16.15855 30.12931,23.18493 1.96331,4.3219 2.28891,14.02964 1.02144,30.45396 l -0.65075,8.43268 -10.25,2.4601 c -9.38881,2.2535 -10.25,2.6574 -10.25,4.8067 0,3.4573 -3.46901,11.9829 -6.48431,15.9362 -4.73671,6.2101 -9.10176,7.6466 -22.07576,7.2647 -11.00188,-0.3238 -11.40033,-0.4156 -14.43281,-3.3235 -1.71521,-1.6448 -4.53013,-5.9198 -6.25537,-9.5 -1.72524,-3.5802 -3.19065,-6.6125 -3.25646,-6.7384 -0.0658,-0.1258 -23.04169,1.5602 -51.05748,3.7468 -28.0158,2.1866 -52.74735,3.9771 -54.95901,3.9788 l -4.0212,0 -1.1768,6.1924 c -2.37249,12.484 -9.58958,22.8312 -19.48574,27.937 -4.78523,2.4689 -16.3635,3.3558 -25.31615,1.9393 z m 21.96646,-4.6102 c 2.0293,-0.8479 5.72624,-3.4189 8.21545,-5.7134 14.75083,-13.5969 15.77923,-41.3123 2.08972,-56.31813 -6.46895,-7.09095 -12.32759,-9.75049 -20.35339,-9.23944 -25.78216,1.64168 -36.72375,42.14797 -17.34646,64.21747 6.63389,7.5556 18.73554,10.6715 27.39468,7.0535 z m -16.21537,-8.5736 c -9.47111,-4.6881 -15.77884,-16.4395 -14.96757,-27.8848 1.09445,-15.4403 11.66836,-26.49353 25.23757,-26.38154 12.47972,0.10299 21.80853,8.77984 24.37686,22.67324 2.53003,13.6862 -4.25626,27.2084 -16.14857,32.1773 -5.28494,2.2082 -13.37297,1.9528 -18.49829,-0.5842 z m 17.09381,-2.8178 c 4.17427,-1.5871 9.91517,-7.3531 11.98919,-12.0418 3.06225,-6.9226 2.79524,-16.2398 -0.66826,-23.3189 -3.11358,-6.3639 -5.77017,-8.825 -12.16054,-11.2655 -12.33885,-4.71225 -25.84936,5.4665 -27.21272,20.5019 -1.3407,14.7854 7.89666,27.025 20.41342,27.0478 2.8517,0.01 6.2892,-0.4104 7.63891,-0.9235 z m -8.86926,-18.5216 c -1.35,-1.35 -2.45455,-3.6204 -2.45455,-5.0454 0,-3.0296 4.06494,-7.5 6.81969,-7.5 3.51475,0 7.18031,3.8287 7.18031,7.5 0,2.4332 -0.72383,3.9242 -2.63486,5.4274 -3.46016,2.7218 -5.91196,2.6167 -8.91059,-0.382 z m 7.04545,-5.0591 c 0,-2.2623 -0.45848,-2.9863 -1.89101,-2.9863 -2.77323,0 -4.33172,2.9242 -2.64296,4.9591 2.10432,2.5355 4.53397,1.4784 4.53397,-1.9728 z m -29.16256,30.2637 c -4.79464,-5.2019 -8.4185,-12.4444 -9.8821,-19.75 -0.97878,-4.8856 -1.40086,-5.5354 -3.7786,-5.8164 -3.27389,-0.3871 -3.33851,0.4632 -0.68748,9.0462 2.35945,7.639 6.46854,13.6405 12.16442,17.7665 5.85906,4.2443 6.76696,3.7262 2.18376,-1.2463 z m -65.57345,-11.1751 c 6.06973,-1.6158 12.70908,-5.285 16.06518,-8.8785 l 2.32917,-2.4939 -3.82917,-0.6073 c -2.10604,-0.334 -6.75417,-0.5526 -10.32917,-0.4857 -5.39271,0.1008 -37.87183,-3.9107 -45.75,-5.6507 -3.00463,-0.6636 -2.87468,1.0323 0.44631,5.8245 7.58797,10.9494 25.72163,16.3769 41.06768,12.2916 z m 252.03726,-10.3249 c -2.90694,-3.107 -5.19233,-7.3838 -6.21069,-11.6225 -0.66648,-2.774 -0.86048,-2.856 -5.66233,-2.3946 -2.73471,0.2627 -5.21677,0.7223 -5.51569,1.0212 -0.9359,0.9359 5.43054,12.5226 7.78795,14.1738 1.30918,0.9169 4.31339,1.5721 7.20911,1.5721 l 4.96458,0 -2.57293,-2.75 z m 19.04376,-1.5666 c 1.28976,-1.2009 3.04258,-3.5249 3.89516,-5.1645 l 1.55014,-2.981 -3.67995,3.231 c -6.73667,5.9149 -15.75594,3.6516 -20.2753,-5.0879 -0.87621,-1.6944 -2.20295,-6.2533 -2.94831,-10.1309 l -1.35519,-7.0501 0.33216,7.5 c 0.83845,18.9322 12.40829,29.0621 22.48129,19.6834 z m -247.34501,-7.082 0,-2.8986 -8.95346,0.2153 c -4.9244,0.1184 -9.27907,0.4166 -9.67704,0.6625 -0.39797,0.246 -16.69037,-1.584 -36.20532,-4.0667 -39.77206,-5.0597 -40.66418,-5.1263 -40.66418,-3.033 0,1.9119 -0.34052,1.8424 32.5,6.6385 26.28315,3.8384 46.45097,5.748 58,5.4916 4.82449,-0.1071 5,-0.2128 5,-3.0096 z m 247.87658,-1.465 c 2.41475,-2.6683 4.62342,-9.8741 4.62342,-15.084 0,-17.55638 -13.39921,-24.53562 -20.6835,-10.77342 -1.14784,2.16863 -1.7231,5.67142 -1.76068,10.72102 -0.0463,6.2255 0.36901,8.2469 2.44418,11.8954 3.96596,6.9728 10.71244,8.3948 15.37658,3.241 z m -5.45679,-11.8474 c -1.3188,-3.4687 -0.44382,-6.9382 2.09202,-8.2953 4.25978,-2.2798 8.0615,3.0531 6.01458,8.4369 -1.42811,3.7562 -6.6594,3.6648 -8.1066,-0.1416 z m 5.08021,-2.789 c 0,-0.825 -0.45,-1.5 -1,-1.5 -0.55,0 -1,0.675 -1,1.5 0,0.825 0.45,1.5 1,1.5 0.55,0 1,-0.675 1,-1.5 z m -227.65088,16.8532 7.65088,-0.6467 0,-3.2479 c 0,-9.1885 10.63413,-33.27768 17.15399,-38.85843 7.39196,-6.32724 13.36595,-7.97862 28.59229,-7.9037 12.20559,0.0601 13.6689,0.27194 18.62547,2.69696 9.76044,4.77534 13.51519,13.6408 14.36246,33.91167 l 0.53523,12.8051 5.11528,-0.5667 c 2.8134,-0.3117 25.81528,-2.1325 51.11528,-4.0463 25.3,-1.9137 48.31847,-3.7354 51.15216,-4.0481 l 5.15216,-0.5686 1.60104,-8.6311 c 3.04429,-16.41173 6.03126,-19.46072 21.03086,-21.46765 9.46877,-1.2669 16.44936,-0.46866 19.32432,2.20976 2.6897,2.50584 4.20722,10.18333 3.31246,16.75849 -0.39294,2.8875 -0.68262,5.2309 -0.64372,5.2076 0.0389,-0.023 2.54572,-0.6181 5.57072,-1.3217 l 5.5,-1.2793 0.6511,-5.42833 c 0.35811,-2.98556 0.69561,-10.05872 0.75,-15.71813 0.0815,-8.48405 -0.25585,-10.9852 -1.92255,-14.25221 -2.68753,-5.268 -10.97122,-11.61031 -24.01768,-18.38889 -10.58759,-5.50102 -10.73323,-5.62576 -14.3767,-12.31319 -2.02441,-3.71573 -3.34244,-5.63087 -2.92895,-4.25587 0.41349,1.375 0.77273,3.85 0.79829,5.5 l 0.0465,3 -16,-0.36045 c -8.8,-0.19825 -18.91749,-0.64824 -22.48332,-1 l -6.48332,-0.63955 -2.55059,-21.25 -2.55059,-21.25 2.62394,0 c 4.84833,0 17.68633,3.83755 23.14612,6.91887 2.97659,1.67988 7.57743,5.12919 10.22408,7.66514 5.2392,5.02003 5.18405,4.71791 -0.68724,-3.76495 -2.16259,-3.12452 -5.63717,-6.80937 -7.72128,-8.18857 -6.79188,-4.49466 -24.02034,-9.04854 -44.01781,-11.63493 -14.17735,-1.83364 -53.99384,-2.42677 -71.09272,-1.05904 -23.99233,1.91914 -25.08269,2.64792 -3.90728,2.61156 18.43327,-0.0317 19.78921,0.0968 24.78671,2.34815 6.05427,2.72742 9.21329,6.18142 9.21329,10.07357 0,2.65703 -8.18241,19.66888 -12.12045,25.19936 -1.44367,2.02745 -3.19842,3.0181 -6.19463,3.49721 -2.29921,0.36766 -3.61891,0.85564 -2.93265,1.08439 0.68625,0.22875 1.24773,1.02583 1.24773,1.7713 0,1.6258 -3.89885,2.18548 -21,3.01452 -31.69806,1.53668 -63.86121,8.08955 -86.64296,17.6525 l -7.42024,3.11474 1.98387,2.11174 c 9.61504,10.23474 4.48532,32.58444 -7.4788,32.58444 -4.16615,0 -8.91638,-3.87771 -10.45267,-8.53273 l -1.1443,-3.46727 -8.77723,0 c -11.00716,0 -32.80645,-1.6865 -40.06767,-3.09983 -3.025,-0.58879 -6.00482,-1.71432 -6.62183,-2.50119 -0.91539,-1.1674 -1.22769,-0.90139 -1.69708,1.44555 -0.31638,1.58192 -1.75615,4.27966 -3.19949,5.99497 -2.45865,2.92193 -2.52509,3.26032 -1.05293,5.36213 2.41986,3.45483 2.0024,8.49437 -0.92867,11.21079 -1.62742,1.5082 -2.5,3.3954 -2.5,5.4069 0,3.6992 -3.281,2.9705 35,7.7731 21.94051,2.7526 31.80324,3.5476 42.85211,3.4539 15.64292,-0.1327 17.14789,0.3128 17.14789,5.0761 0,2.6717 0.27538,2.8776 3.84912,2.8776 2.11702,0 7.29202,-0.291 11.5,-0.6468 z m 96.30019,-18.1032 c 1.54385,-23.13893 1.09661,-46.85792 -1.02894,-54.56867 l -1.87963,-6.81865 3.37963,-3.47268 c 1.8588,-1.90997 5.85463,-8.20025 8.87963,-13.97841 3.025,-5.77815 8.65,-14.93795 12.5,-20.35511 5.73348,-8.06731 7.30474,-9.68718 8.68426,-8.95294 0.92634,0.49304 9.37796,0.89644 18.78138,0.89644 12.77937,0 17.20683,0.31568 17.5315,1.25 0.66532,1.91459 4.16629,40.75324 3.7143,41.20523 -0.78538,0.78538 -37.73328,-0.72432 -38.66144,-1.57971 -0.5225,-0.48154 -6.3725,-0.86591 -13,-0.85417 l -12.05,0.0213 -2.5306,3.72865 -2.5306,3.72865 1.69633,8 c 2.01591,9.50719 2.28516,24.96374 0.78653,45.15093 -0.59309,7.98914 -0.82733,14.77674 -0.52053,15.08354 0.53921,0.5392 74.78734,-3.6087 75.4039,-4.2125 0.37609,-0.3683 2.10684,-36.67942 2.15786,-45.27197 l 0.0371,-6.25 -3.46862,0 c -2.67237,0 -3.33648,-0.34433 -2.89301,-1.5 0.44981,-1.17217 -0.26735,-1.50335 -3.28138,-1.51531 -4.74059,-0.0188 -6.66534,-1.1386 -6.19566,-3.60452 0.29359,-1.54146 1.41347,-1.93483 6.21645,-2.1836 5.29337,-0.27416 5.67819,-0.43986 3.99028,-1.71819 -1.02743,-0.77813 -2.65556,-1.42908 -3.61806,-1.44658 -2.45141,-0.0446 -2.35042,-4.0318 0.10212,-4.0318 3.37239,0 8.60835,4.42318 11.04006,9.32631 l 2.39217,4.82342 -1.17352,28.15649 c -0.64544,15.48606 -1.49692,28.43735 -1.89218,28.78075 -0.63783,0.554 -73.39026,5.0171 -80.56934,4.9426 l -2.8507,-0.03 0.8507,-12.75 z m 66.32109,-71.50002 c -0.0163,-1.7875 -0.68193,-9.55 -1.47923,-17.25 -0.79729,-7.7 -1.45897,-14.09049 -1.4704,-14.2011 -0.0114,-0.1106 -6.99642,-0.3356 -15.52221,-0.5 -9.88118,-0.19053 -15.49014,0.0637 -15.47029,0.7011 0.0171,0.55 0.67941,7.525 1.47173,15.5 0.79232,7.975 1.45394,15.27228 1.47029,16.21617 0.0258,1.49294 1.42801,1.75798 10.77971,2.03762 5.9125,0.17679 12.8875,0.41702 15.5,0.53383 4.7413,0.21199 4.74995,0.20643 4.7204,-3.03762 z m -38.46265,-11.46606 c -1.05426,-16.87295 -1.15055,-16.97427 -7.25381,-7.63317 -4.75029,7.27037 -10.25394,17.33118 -10.25394,18.74446 0,0.33262 4.10395,0.60477 9.1199,0.60477 l 9.1199,0 -0.73205,-11.71606 z m -162.75201,87.73858 c -6.29559,-4.9521 -1.99784,-15.82107 5.33555,-13.49355 5.32956,1.69154 5.55268,11.94535 0.31188,14.33315 -3.12685,1.4247 -2.68532,1.4904 -5.64743,-0.8396 z m 5.24426,-4.0225 c 1.13192,-2.115 -0.16307,-6.00002 -2,-6.00002 -0.5113,0 -1.4113,0.90002 -2,2.00002 -1.13192,2.115 0.16307,6 2,6 0.5113,0 1.4113,-0.9 2,-2 z m 116.18963,12.25 c 0.50945,-6.1553 -0.95623,-20.93533 -2.65584,-26.7818 -1.92471,-6.62075 -6.35067,-11.92089 -11.33377,-13.57231 -2.06809,-0.68537 -9.21328,-1.25768 -16.20002,-1.29757 -10.82602,-0.0618 -13.10263,0.21686 -17,2.08089 l -4.5,2.15225 7,0.0988 c 13.96492,0.19713 25.12897,6.38731 31.37817,17.39839 3.35948,5.91945 6.12183,14.57675 6.12183,19.18615 0,3.8636 0.56904,4.4852 4.1063,4.4852 2.48248,0 2.80548,-0.3929 3.08333,-3.75 z m 157.58551,-26.83082 c -0.72591,-2.21556 -2.02036,-4.03538 -3.0053,-4.22504 -1.60725,-0.3095 -1.62437,-0.0333 -0.24094,3.88774 0.81907,2.3215 1.80254,6.74027 2.1855,9.81952 l 0.69628,5.5986 0.81981,-5.5945 c 0.56679,-3.86785 0.42626,-6.79557 -0.45535,-9.48632 z m -34.11286,7.3308 c -0.27741,-0.6875 -0.50439,-0.125 -0.50439,1.25 0,1.37502 0.22698,1.93752 0.50439,1.25002 0.27741,-0.68752 0.27741,-1.81252 0,-2.50002 z m -315.66228,-5.75 c 0,-3.14017 -1.64918,-4.07778 -2.63837,-1.5 -0.71526,1.86394 0.2261,4.5 1.60699,4.5 0.56726,0 1.03138,-1.35 1.03138,-3 z m 319.03297,-1.5 c 1.35701,-1.85001 1.33579,-1.89707 -0.28297,-0.62756 -0.9625,0.75485 -1.75,1.84235 -1.75,2.41667 0,0.57432 0.12734,0.85672 0.28297,0.62756 0.15563,-0.22917 0.94313,-1.31667 1.75,-2.41667 z m -180.58158,-6.3701 c -1.27157,-1.31361 -5.294,1.31685 -6.78053,4.43411 l -1.72928,3.62635 4.43403,-3.84518 c 2.43872,-2.11485 4.27282,-4.01172 4.07578,-4.21528 z m 202.96516,2.51323 c -0.34679,-0.90372 -1.32713,-1.64313 -2.17853,-1.64313 -1.30843,0 -1.26702,0.31047 0.26753,2.00613 2.04018,2.25437 2.85592,2.09942 1.911,-0.363 z m -265.12818,-1.40928 c 3.70256,-4.09129 4.27758,-15.1086 1.11497,-21.36267 -1.89182,-3.74106 -3.83689,-4.10304 -6.54689,-1.21838 -2.0804,2.21449 -2.35645,3.47049 -2.35645,10.72174 0,11.35822 3.46585,16.63564 7.78837,11.85931 z m 7.36757,-9.50288 c -0.27393,-0.67703 -0.48137,0.11903 -0.46099,1.76903 0.0204,1.65 0.2445,2.20394 0.49804,1.23097 0.25354,-0.97297 0.23687,-2.32297 -0.037,-3 z m -83.94571,0.26903 c 2.81323,-5.58052 0.77692,-15.20566 -3.34286,-15.80089 -3.93417,-0.56841 -6.01844,9.40063 -3.32497,15.90325 1.52139,3.67297 4.78992,3.62279 6.66783,-0.10236 z m 63.29535,-2.75 c 0.0152,-7.49111 5.98869,-17.25 10.55888,-17.25 0.97045,0 4.96081,-1.51718 8.86747,-3.37151 22.78725,-10.8162 59.207,-18.50663 95.83238,-20.23605 8.12037,-0.38343 14.63385,-0.82762 14.4744,-0.98707 -0.15946,-0.15945 -6.12839,-1.02739 -13.26431,-1.92875 -10.58855,-1.33748 -17.9394,-1.51781 -39.9744,-0.98066 -44.0714,1.07436 -78.2859,5.73656 -96.11445,13.09694 -7.53102,3.10912 -20.56456,11.81235 -24.88362,16.61618 -4.40762,4.90233 -7.1231,10.72979 -6.16424,13.22854 0.82022,2.13746 18.73637,4.17192 38.91231,4.41868 l 11.75,0.1437 0.006,-2.75 z m 20.6567,-4.5 c -0.27741,-0.6875 -0.50438,-0.125 -0.50438,1.25 0,1.375 0.22697,1.9375 0.50438,1.25 0.27741,-0.6875 0.27741,-1.8125 0,-2.5 z m -66.57588,-14.91573 4.64981,-4.66572 -3.6181,0.4937 c -1.98996,0.27153 -6.67879,1.3786 -10.41962,2.46015 l -6.80151,1.96646 2.5518,3.03264 c 1.40349,1.66796 2.83889,4.23546 3.18977,5.70557 1.0652,4.46294 1.47022,4.46103 3.67566,-0.0174 1.1673,-2.37034 4.21479,-6.40928 6.77219,-8.97543 z m 302.40986,-18.08427 c -1.6325,-5.75259 -7.04951,-15.19417 -11.53049,-20.09708 -3.40799,-3.72888 -7.18229,-6.48567 -12.20017,-8.91113 -7.04869,-3.40708 -16.52538,-6.31534 -17.47721,-5.36351 -0.53966,0.53966 3.57477,33.81822 4.2667,34.51015 0.46376,0.46375 19.63582,1.66154 31.2623,1.95313 6.10433,0.1531 6.29585,0.0825 5.67887,-2.09156 z m -118.70377,-11.21332 c 1.06571,-1.35483 4.08496,-6.70381 6.70944,-11.88663 5.77919,-11.41269 5.64997,-13.41828 -1.06795,-16.57608 -8.92197,-4.19382 -38.409,-3.76235 -61.43398,0.89892 -9.18261,1.85897 -9.644,2.08366 -13.81012,6.72517 -4.45254,4.9606 -12.61142,16.63091 -13.80932,19.75259 -0.64469,1.68004 0.68813,1.74057 25.21939,1.14528 19.71108,-0.47832 28.17013,-0.29487 35.40005,0.76769 5.225,0.7679 12.05484,1.45023 15.17742,1.51629 4.91892,0.10405 5.93629,-0.20901 7.61507,-2.34323 z m -41.06152,-34.22967 c -0.97297,-0.25354 -2.32297,-0.23687 -3,0.037 -0.67703,0.27393 0.11903,0.48137 1.76903,0.46099 1.65,-0.0204 2.20394,-0.2445 1.23097,-0.49804 z" style="fill:#000000"/>
    </g>
  </g>
</svg>